<?xml version="1.0" encoding="utf-8"?>
<!-- Generator: Adobe Illustrator 26.1.0, SVG Export Plug-In . SVG Version: 6.00 Build 0)  -->
<svg version="1.1" id="Capa_1" xmlns="http://www.w3.org/2000/svg" xmlns:xlink="http://www.w3.org/1999/xlink" x="0px" y="0px"
	 viewBox="0 0 800 800" style="enable-background:new 0 0 800 800;" xml:space="preserve">
<style type="text/css">
	.st0{fill:#1ED8C6;}
</style>
<g>
	<g>
		<path class="st0" d="M788.2,415.8h-15.3c-12.8,0-23.2-10.4-23.2-23.2s10.4-23.2,23.2-23.2h15.3c6.5,0,11.8-5.3,11.8-11.8v-71
			c0-6.5-5.3-11.8-11.8-11.8h-15.3c-12.8,0-23.2-10.4-23.2-23.2V247l17.4-15.9c4.7-4.3,5.2-11.6,1-16.4l-46.2-54
			c-2-2.4-5-3.9-8.1-4.1c-3.1-0.3-6.2,0.8-8.6,2.8l-11.6,10c-9.7,8.3-24.4,7.2-32.8-2.5c-4-4.7-6-10.7-5.5-16.9
			c0.5-6.2,3.3-11.8,8.1-15.9l11.6-10c5-4.3,5.5-11.7,1.3-16.7l-46.2-53.9c-4.3-5-11.7-5.5-16.7-1.3l-11.6,10
			c-4.7,4-10.7,6-16.9,5.5c-6.2-0.5-11.8-3.3-15.9-8.1l-15.5-18.1c-2-2.4-5-3.9-8.1-4.1c-3.1-0.2-6.2,0.8-8.6,2.8L331.8,215.7H298
			c-6.5,0-11.8,5.3-11.8,11.8c0,6.5,5.3,11.8,11.8,11.8h427.9v12c0,25.9,21.1,46.9,46.9,46.9h3.5v47.4h-3.5
			c-25.9,0-46.9,21.1-46.9,46.9c0,25.9,21.1,46.9,46.9,46.9h3.5v47.4h-3.5c-25.9,0-46.9,21.1-46.9,46.9v26.8H644
			c-6.5,0-11.8,5.3-11.8,11.8c0,6.5,5.3,11.8,11.8,11.8h93.7c6.5,0,11.8-5.3,11.8-11.8v-38.7c0-12.8,10.4-23.2,23.2-23.2h15.3
			c6.5,0,11.8-5.3,11.8-11.8v-71C800,421.1,794.7,415.8,788.2,415.8z M368.2,215.7L543,65.9l7.8,9.1c8.2,9.5,19.5,15.3,32,16.3
			c12.5,1,24.6-3,34.1-11.2l2.6-2.3l30.8,36l-2.6,2.3c-19.6,16.8-21.9,46.5-5.1,66.2c16.8,19.6,46.5,21.9,66.2,5.1l2.6-2.3
			l26.2,30.5L368.2,215.7L368.2,215.7z"/>
	</g>
</g>
<g>
	<g>
		<path class="st0" d="M540.1,560.6h-466v-12c0-25.9-21.1-46.9-46.9-46.9h-3.5v-47.4h3.5c25.9,0,46.9-21.1,46.9-46.9
			c0-25.9-21.1-46.9-46.9-46.9h-3.5v-47.4h3.5c25.9,0,46.9-21.1,46.9-46.9v-26.8h135.1c6.5,0,11.8-5.3,11.8-11.8
			c0-6.5-5.3-11.8-11.8-11.8h-147c-6.5,0-11.8,5.3-11.8,11.8v38.7c0,12.8-10.4,23.2-23.2,23.2H11.8c-6.5,0-11.8,5.3-11.8,11.8v71
			c0,6.5,5.3,11.8,11.8,11.8h15.3c12.8,0,23.2,10.4,23.2,23.2c0,12.8-10.4,23.2-23.2,23.2H11.8C5.3,430.7,0,436,0,442.5v71
			c0,6.5,5.3,11.8,11.8,11.8h15.3c12.8,0,23.2,10.4,23.2,23.2v6.4l-16.7,13.3c-2.5,2-4.1,4.9-4.4,8.1c-0.3,3.2,0.7,6.4,2.8,8.8
			l46.2,54c2,2.4,5,3.9,8.1,4.1c3.1,0.3,6.2-0.8,8.6-2.8l11.6-10c4.7-4,10.7-6,16.9-5.5c6.2,0.5,11.8,3.3,15.9,8.1
			c8.3,9.7,7.2,24.4-2.5,32.8l-11.6,10c-5,4.3-5.5,11.7-1.3,16.7l46.2,54c4.3,5,11.7,5.5,16.7,1.3l11.6-10c4.7-4,10.7-6,16.9-5.5
			c6.2,0.5,11.8,3.3,15.9,8.1l15.5,18.1c2.3,2.7,5.7,4.1,9,4.1c2.7,0,5.5-0.9,7.7-2.8l204.4-175.1c0.1-0.1,0.2-0.2,0.3-0.3h72
			c6.5,0,11.8-5.3,11.8-11.8C551.9,565.9,546.6,560.6,540.1,560.6z M257,734l-7.8-9.1c-8.2-9.5-19.5-15.3-32-16.3
			c-12.5-1-24.6,3-34.1,11.2l-2.6,2.3l-30.8-36l2.6-2.3c9.5-8.2,15.3-19.5,16.3-32c1-12.5-3-24.6-11.2-34.1
			c-8.2-9.5-19.5-15.3-32-16.3c-12.5-0.9-24.6,3-34.1,11.2l-2.6,2.3l-26.2-30.5h369.4L257,734z"/>
	</g>
</g>
<g>
	<g>
		<path class="st0" d="M668.6,271.2H331.3c-6.5,0-11.8,5.3-11.8,11.8s5.3,11.8,11.8,11.8h325.5v210.2H143.3V294.9h97.5
			c6.5,0,11.8-5.3,11.8-11.8s-5.3-11.8-11.8-11.8H131.4c-6.5,0-11.8,5.3-11.8,11.8V517c0,6.5,5.3,11.8,11.8,11.8h537.2
			c6.5,0,11.8-5.3,11.8-11.8V283C680.4,276.5,675.1,271.2,668.6,271.2z"/>
	</g>
</g>
<g>
	<g>
		<path class="st0" d="M244.8,348.2h-65.4c-4.3,0-6.3,4.6-6.3,9c0,4.9,2.3,9.1,6.3,9.1h22.7v88.6c0,4.2,4.9,6.3,10,6.3
			c4.9,0,10.1-2.2,10.1-6.3v-88.6h22.6c4,0,6.3-4.3,6.3-9.1C251.1,352.8,249.1,348.2,244.8,348.2z"/>
	</g>
</g>
<g>
	<g>
		<path class="st0" d="M272.2,348.2c-5.1,0-10,1.9-10,6.2v100.5c0,4.2,4.9,6.3,10,6.3c4.9,0,10-2.2,10-6.3V354.3
			C282.2,350,277.1,348.2,272.2,348.2z"/>
	</g>
</g>
<g>
	<g>
		<path class="st0" d="M362,421.6c-5.3,0-9.6,1.5-9.9,6.3c-0.5,6.5-1.7,16.5-15.8,16.5c-10.7,0-16.5-5.7-16.5-17.8v-43.1
			c0-12.1,5.9-17.8,16.2-17.8c14.7,0,15.8,10.5,16.1,15.3c0.2,4.6,4.3,6.3,10,6.3c6.8,0,10-1.9,10-9.9c0-17.9-15.3-29.4-36.8-29.4
			c-19.5,0-35.7,9.6-35.7,35.4v43.1c0,25.8,16.1,35.4,35.6,35.4c21.6,0,37-11.9,37-30.6C372.2,423.6,368.9,421.6,362,421.6z"/>
	</g>
</g>
<g>
	<g>
		<path class="st0" d="M461.2,448.4L427.5,397l27.7-34.6c1.1-1.4,1.2-2.8,1.2-3.9c0-5.1-6.5-10.4-11.6-10.4c-2.2,0-4,0.8-5.6,2.9
			l-33.4,45.5v-42.2c0-4.3-5.1-6.2-10-6.2c-5.1,0-10,1.9-10,6.2h0v100.5c0,4.2,4.9,6.3,10,6.3c4.9,0,10-2.2,10-6.3v-30.3l8.3-10.5
			l29.1,44.1c1.7,2.8,4.3,3.9,7,3.9c5.9,0,12.1-5.1,12.1-10C462.3,450.7,462,449.4,461.2,448.4z"/>
	</g>
</g>
<g>
	<g>
		<path class="st0" d="M535,443.6h-43.8v-31.1h23.5c4.3,0,6.3-4.2,6.3-7.7c0-4.2-2.3-8-6.3-8h-23.5v-30.9H535c4,0,6.3-4.2,6.3-9
			c0-4.2-2-8.7-6.3-8.7h-55c-4.5,0-8.8,2.2-8.8,6.3v100.3c0,4.2,4.3,6.3,8.8,6.3h55c4.3,0,6.3-4.5,6.3-8.7
			C541.3,447.7,539,443.6,535,443.6z"/>
	</g>
</g>
<g>
	<g>
		<path class="st0" d="M617.4,348.2H552c-4.3,0-6.3,4.6-6.3,9c0,4.9,2.3,9.1,6.3,9.1h22.7v88.6c0,4.2,4.9,6.3,10,6.3
			c4.9,0,10-2.2,10-6.3v-88.6h22.6c4,0,6.3-4.3,6.3-9.1C623.7,352.8,621.7,348.2,617.4,348.2z"/>
	</g>
</g>
</svg>
